HIERARCHY
ROOT Hips
{
	OFFSET 0.000000 71.427986 0.000000
	CHANNELS 6 Xposition Yposition Zposition Xrotation Yrotation Zrotation
	JOINT Pelvis
	{
		OFFSET 0.000000 0.000000 0.000000
		CHANNELS 3 Xrotation Yrotation Zrotation
		JOINT LeftUpLeg
		{
			OFFSET 6.797100 -2.508499 -1.318700
			CHANNELS 3 Xrotation Yrotation Zrotation
			JOINT LeftLeg
			{
				OFFSET 0.069008 -29.241863 0.690200
				CHANNELS 3 Xrotation Yrotation Zrotation
				JOINT LeftFoot
				{
					OFFSET -0.069008 -29.568123 -0.266800
					CHANNELS 3 Xrotation Yrotation Zrotation
					JOINT LeftToeBase
					{
						OFFSET 3.145500 -8.631000 16.059900
						CHANNELS 3 Xrotation Yrotation Zrotation
						End Site
						{
							OFFSET 0.000000 18.501587 0.000000
						}
					}
				}
			}
			JOINT Left_ShortSleeve
			{
				OFFSET 0.265923 -10.480953 1.153800
				CHANNELS 3 Xrotation Yrotation Zrotation
				End Site
				{
					OFFSET 1.725763 19.823879 0.000000
				}
			}
		}
		JOINT RightUpLeg
		{
			OFFSET -6.797100 -2.508499 -1.318700
			CHANNELS 3 Xrotation Yrotation Zrotation
			JOINT RightLeg
			{
				OFFSET -0.082453 -29.241932 0.688000
				CHANNELS 3 Xrotation Yrotation Zrotation
				JOINT RightFoot
				{
					OFFSET 0.082453 -29.568058 -0.264600
					CHANNELS 3 Xrotation Yrotation Zrotation
					JOINT RightToeBase
					{
						OFFSET -3.115300 -8.682800 16.113400
						CHANNELS 3 Xrotation Yrotation Zrotation
						End Site
						{
							OFFSET 0.000000 18.567114 0.000000
						}
					}
				}
			}
			JOINT Right_ShortSleeve
			{
				OFFSET -0.265923 -10.480953 1.153800
				CHANNELS 3 Xrotation Yrotation Zrotation
				End Site
				{
					OFFSET -1.725766 19.823910 0.000000
				}
			}
		}
	}
	JOINT Spine
	{
		OFFSET 0.000000 13.368103 0.470500
		CHANNELS 3 Xrotation Yrotation Zrotation
		JOINT Spine1
		{
			OFFSET 0.147000 13.837402 0.538800
			CHANNELS 3 Xrotation Yrotation Zrotation
			JOINT Spine2
			{
				OFFSET 0.168000 16.242897 -1.435500
				CHANNELS 3 Xrotation Yrotation Zrotation
				JOINT Neck
				{
					OFFSET 0.217200 18.631500 -1.679100
					CHANNELS 3 Xrotation Yrotation Zrotation
					JOINT Head
					{
						OFFSET 0.000000 6.599396 1.385900
						CHANNELS 3 Xrotation Yrotation Zrotation
						JOINT Hat
						{
							OFFSET -0.532200 27.220596 -10.096100
							CHANNELS 3 Xrotation Yrotation Zrotation
							End Site
							{
								OFFSET 0.000000 22.029861 0.000000
							}
						}
						JOINT HairD
						{
							OFFSET -10.777400 17.437393 -1.325900
							CHANNELS 3 Xrotation Yrotation Zrotation
							JOINT HairD1
							{
								OFFSET -3.290299 -11.051193 1.062200
								CHANNELS 3 Xrotation Yrotation Zrotation
								End Site
								{
									OFFSET 0.000000 11.579437 0.000000
								}
							}
						}
						JOINT HairB
						{
							OFFSET -10.777400 17.437393 1.467900
							CHANNELS 3 Xrotation Yrotation Zrotation
							JOINT HairB1
							{
								OFFSET -1.561200 -12.956299 3.590200
								CHANNELS 3 Xrotation Yrotation Zrotation
								End Site
								{
									OFFSET 0.000000 13.534866 0.000000
								}
							}
						}
						JOINT HairA
						{
							OFFSET 9.713100 17.437393 1.467900
							CHANNELS 3 Xrotation Yrotation Zrotation
							JOINT HairA1
							{
								OFFSET 1.561200 -12.956299 3.590200
								CHANNELS 3 Xrotation Yrotation Zrotation
								End Site
								{
									OFFSET 0.000000 13.534866 0.000000
								}
							}
						}
						JOINT HairC
						{
							OFFSET 9.713100 17.437393 -1.325900
							CHANNELS 3 Xrotation Yrotation Zrotation
							JOINT HairC1
							{
								OFFSET 3.290300 -11.051193 1.062200
								CHANNELS 3 Xrotation Yrotation Zrotation
								End Site
								{
									OFFSET 0.000000 11.579437 0.000000
								}
							}
						}
					}
				}
				JOINT LeftShoulder
				{
					OFFSET 5.101800 15.108002 -2.763700
					CHANNELS 3 Xrotation Yrotation Zrotation
					JOINT LeftArm
					{
						OFFSET 9.825497 2.506317 -1.597400
						CHANNELS 3 Xrotation Yrotation Zrotation
						JOINT LeftForeArm
						{
							OFFSET 21.966244 0.000000 0.000000
							CHANNELS 3 Xrotation Yrotation Zrotation
							JOINT LeftHand
							{
								OFFSET 33.879036 0.000000 0.000000
								CHANNELS 3 Xrotation Yrotation Zrotation
								JOINT LeftHandThumb1
								{
									OFFSET 6.715286 -2.359680 3.363841
									CHANNELS 3 Xrotation Yrotation Zrotation
									JOINT LeftHandThumb2
									{
										OFFSET 2.507072 -1.447464 1.447461
										CHANNELS 3 Xrotation Yrotation Zrotation
										JOINT LeftHandThumb3
										{
											OFFSET 2.898338 -1.673355 1.673357
											CHANNELS 3 Xrotation Yrotation Zrotation
											End Site
											{
												OFFSET -0.295959 3.727692 -0.131651
											}
										}
									}
								}
								JOINT LeftHandIndex1
								{
									OFFSET 14.190811 -0.254547 3.840278
									CHANNELS 3 Xrotation Yrotation Zrotation
									JOINT LeftHandIndex2
									{
										OFFSET 3.551727 0.000000 -0.000000
										CHANNELS 3 Xrotation Yrotation Zrotation
										JOINT LeftHandIndex3
										{
											OFFSET 2.894196 0.000000 0.000000
											CHANNELS 3 Xrotation Yrotation Zrotation
											End Site
											{
												OFFSET -1.000603 2.690872 0.366626
											}
										}
									}
								}
								JOINT LeftHandMiddle1
								{
									OFFSET 13.776489 0.000000 0.000000
									CHANNELS 3 Xrotation Yrotation Zrotation
									JOINT LeftHandMiddle2
									{
										OFFSET 3.438232 0.000000 0.000000
										CHANNELS 3 Xrotation Yrotation Zrotation
										JOINT LeftHandMiddle3
										{
											OFFSET 3.691551 0.000000 0.000000
											CHANNELS 3 Xrotation Yrotation Zrotation
											End Site
											{
												OFFSET -1.082298 3.499527 0.457670
											}
										}
									}
								}
								JOINT LeftHandRing1
								{
									OFFSET 13.966164 -0.268127 -3.067488
									CHANNELS 3 Xrotation Yrotation Zrotation
									JOINT LeftHandRing2
									{
										OFFSET 3.162567 0.000000 0.000000
										CHANNELS 3 Xrotation Yrotation Zrotation
										JOINT LeftHandRing3
										{
											OFFSET 3.324348 0.000000 0.000000
											CHANNELS 3 Xrotation Yrotation Zrotation
											End Site
											{
												OFFSET -0.861900 3.184998 0.405154
											}
										}
									}
								}
								JOINT LeftHandPinky1
								{
									OFFSET 13.131393 -0.168503 -5.746925
									CHANNELS 3 Xrotation Yrotation Zrotation
									JOINT LeftHandPinky2
									{
										OFFSET 2.849182 0.000000 0.000000
										CHANNELS 3 Xrotation Yrotation Zrotation
										JOINT LeftHandPinky3
										{
											OFFSET 2.805038 0.000000 0.000000
											CHANNELS 3 Xrotation Yrotation Zrotation
											End Site
											{
												OFFSET -0.882500 2.642609 0.325652
											}
										}
									}
								}
							}
							JOINT Left_Sleeve
							{
								OFFSET 6.592125 -0.646545 0.805568
								CHANNELS 3 Xrotation Yrotation Zrotation
								End Site
								{
									OFFSET -0.000179 20.275787 -0.000000
								}
							}
						}
					}
				}
				JOINT RightShoulder
				{
					OFFSET -5.731700 15.108002 -2.763700
					CHANNELS 3 Xrotation Yrotation Zrotation
					JOINT RightArm
					{
						OFFSET -9.825497 2.506317 -1.597400
						CHANNELS 3 Xrotation Yrotation Zrotation
						JOINT RightForeArm
						{
							OFFSET -21.966242 0.000000 0.000000
							CHANNELS 3 Xrotation Yrotation Zrotation
							JOINT RightHand
							{
								OFFSET -33.879032 0.000000 0.000000
								CHANNELS 3 Xrotation Yrotation Zrotation
								JOINT RightHandThumb1
								{
									OFFSET -6.715286 -2.359680 3.363841
									CHANNELS 3 Xrotation Yrotation Zrotation
									JOINT RightHandThumb2
									{
										OFFSET -2.507072 -1.447464 1.447461
										CHANNELS 3 Xrotation Yrotation Zrotation
										JOINT RightHandThumb3
										{
											OFFSET -2.898338 -1.673355 1.673357
											CHANNELS 3 Xrotation Yrotation Zrotation
											End Site
											{
												OFFSET 0.295959 3.727692 -0.131651
											}
										}
									}
								}
								JOINT RightHandIndex1
								{
									OFFSET -14.190811 -0.254547 3.840278
									CHANNELS 3 Xrotation Yrotation Zrotation
									JOINT RightHandIndex2
									{
										OFFSET -3.551727 0.000000 -0.000000
										CHANNELS 3 Xrotation Yrotation Zrotation
										JOINT RightHandIndex3
										{
											OFFSET -2.894196 0.000000 0.000000
											CHANNELS 3 Xrotation Yrotation Zrotation
											End Site
											{
												OFFSET 1.000603 2.690872 0.366626
											}
										}
									}
								}
								JOINT RightHandMiddle1
								{
									OFFSET -13.776489 0.000000 0.000000
									CHANNELS 3 Xrotation Yrotation Zrotation
									JOINT RightHandMiddle2
									{
										OFFSET -3.438232 0.000000 0.000000
										CHANNELS 3 Xrotation Yrotation Zrotation
										JOINT RightHandMiddle3
										{
											OFFSET -3.691551 0.000000 0.000000
											CHANNELS 3 Xrotation Yrotation Zrotation
											End Site
											{
												OFFSET 1.082298 3.499527 0.457670
											}
										}
									}
								}
								JOINT RightHandRing1
								{
									OFFSET -13.966164 -0.268127 -3.067488
									CHANNELS 3 Xrotation Yrotation Zrotation
									JOINT RightHandRing2
									{
										OFFSET -3.162567 0.000000 0.000000
										CHANNELS 3 Xrotation Yrotation Zrotation
										JOINT RightHandRing3
										{
											OFFSET -3.324348 0.000000 0.000000
											CHANNELS 3 Xrotation Yrotation Zrotation
											End Site
											{
												OFFSET 0.861900 3.184998 0.405154
											}
										}
									}
								}
								JOINT RightHandPinky1
								{
									OFFSET -13.131393 -0.168503 -5.746925
									CHANNELS 3 Xrotation Yrotation Zrotation
									JOINT RightHandPinky2
									{
										OFFSET -2.849182 0.000000 0.000000
										CHANNELS 3 Xrotation Yrotation Zrotation
										JOINT RightHandPinky3
										{
											OFFSET -2.805038 0.000000 0.000000
											CHANNELS 3 Xrotation Yrotation Zrotation
											End Site
											{
												OFFSET 0.882500 2.642609 0.325652
											}
										}
									}
								}
							}
							JOINT Right_Sleeve
							{
								OFFSET -6.592125 -0.646545 0.805568
								CHANNELS 3 Xrotation Yrotation Zrotation
								End Site
								{
									OFFSET 0.000179 20.275787 -0.000000
								}
							}
						}
					}
				}
				JOINT Bind_Right_JacketString
				{
					OFFSET -3.534800 11.969597 7.200700
					CHANNELS 3 Xrotation Yrotation Zrotation
					JOINT Bind_Right_JacketString1
					{
						OFFSET -0.319900 -6.102600 2.794100
						CHANNELS 3 Xrotation Yrotation Zrotation
						End Site
						{
							OFFSET 0.000000 6.719452 0.000000
						}
					}
				}
				JOINT Bind_Left_JacketString
				{
					OFFSET 2.904800 11.969597 7.200700
					CHANNELS 3 Xrotation Yrotation Zrotation
					JOINT Bind_Left_JacketString1
					{
						OFFSET 0.364800 -5.904503 3.186800
						CHANNELS 3 Xrotation Yrotation Zrotation
						End Site
						{
							OFFSET 0.000000 6.719513 0.000000
						}
					}
				}
				JOINT HairE
				{
					OFFSET 5.915200 17.612701 -11.592200
					CHANNELS 3 Xrotation Yrotation Zrotation
					JOINT HairE1
					{
						OFFSET 0.289200 -7.171898 -1.284500
						CHANNELS 3 Xrotation Yrotation Zrotation
						End Site
						{
							OFFSET 0.000000 7.291756 0.000000
						}
					}
				}
				JOINT HairF
				{
					OFFSET -0.864800 17.612701 -11.592200
					CHANNELS 3 Xrotation Yrotation Zrotation
					JOINT HairF1
					{
						OFFSET 0.000000 -14.087097 -2.127501
						CHANNELS 3 Xrotation Yrotation Zrotation
						End Site
						{
							OFFSET 0.000000 14.246841 0.000000
						}
					}
				}
				JOINT HairG
				{
					OFFSET -8.087700 17.612701 -11.592200
					CHANNELS 3 Xrotation Yrotation Zrotation
					JOINT HairG1
					{
						OFFSET -0.293600 -6.081398 -0.910100
						CHANNELS 3 Xrotation Yrotation Zrotation
						End Site
						{
							OFFSET 0.000000 6.156120 0.000000
						}
					}
				}
			}
		}
	}
	JOINT Pouch
	{
		OFFSET 0.000000 4.394501 10.847300
		CHANNELS 3 Xrotation Yrotation Zrotation
		End Site
		{
			OFFSET 0.000000 21.880577 0.000000
		}
	}
	JOINT Bag
	{
		OFFSET -13.229000 4.813004 -0.593300
		CHANNELS 3 Xrotation Yrotation Zrotation
		End Site
		{
			OFFSET 0.000000 21.880577 0.000000
		}
	}
	JOINT OccupyGuyFacialAnim_Joint
	{
		OFFSET 1.000000 -70.206398 -1.655000
		CHANNELS 3 Xrotation Yrotation Zrotation
		End Site
		{
			OFFSET 0.000000 21.880577 0.000000
		}
	}
}
MOTION
Frames: 4
Frame Time: 0.016667
0.238392 69.621498 9.042775 4.071882 36.485887 -2.750415 -0.000000 0.000001 -0.000000 -22.400420 5.933584 7.274810 24.125475 -36.167607 -5.639850 -10.090036 -6.740998 4.454361 -0.000000 0.000000 0.000000 -0.000002 0.000001 -0.000000 -11.411364 14.856153 -1.402216 24.359410 12.724675 1.153590 -16.516135 2.827302 -1.025678 -0.000000 0.000001 -0.000000 0.000000 -0.000001 -0.000000 7.112873 0.511093 -2.439108 1.179943 0.647727 1.438048 1.171144 0.823291 1.416788 -1.447716 25.849747 -8.284150 -8.495193 20.302447 -2.010672 0.000000 0.000000 0.000000 0.000000 0.000000 0.000000 0.000000 0.000000 -0.000000 0.000000 0.000000 0.000000 0.000000 0.000000 0.000000 0.000000 0.000000 0.000000 0.000000 0.000000 0.000000 0.000000 0.000000 0.000000 0.000000 0.000000 0.000000 -0.063461 -2.703537 -0.486094 -58.743827 21.372246 -22.798876 10.391434 -75.898360 11.787459 -50.033916 13.093958 4.982028 17.538869 -5.734648 -12.929160 10.855104 26.140252 8.645408 0.000001 -0.000000 -0.000000 13.990904 1.412582 -54.992018 0.369629 1.160675 -65.362561 0.000001 0.000001 -0.000002 7.444402 1.211157 -63.725535 1.805188 1.477031 -64.469459 0.000003 -0.000001 0.000001 8.572756 2.194666 -75.055719 -0.208467 1.006761 -57.746415 -0.000001 0.000000 0.000003 10.012757 13.637239 -84.737642 0.876234 0.062051 -64.553901 0.000000 0.000000 0.000001 0.000003 0.000001 -0.000000 4.836699 8.975272 6.727821 10.740040 17.144876 61.498409 10.869395 22.267148 -5.100417 -0.366000 5.346428 5.429061 15.788503 -2.734487 -17.205883 -1.822784 -31.650837 7.412938 -0.000000 0.000000 0.000002 2.375264 -3.654555 13.539319 -2.144078 -2.475431 24.342740 -0.000001 0.000000 0.000000 -1.975825 -5.709701 18.810583 0.284042 -5.102730 32.657586 0.000000 0.000000 -0.000001 -3.263393 -8.564372 16.917267 4.034727 -4.065648 38.932321 0.000001 0.000000 -0.000003 -6.473123 -11.350212 28.409171 10.721016 -2.560803 40.492414 -0.000001 0.000001 0.000002 -0.000000 0.000000 0.000000 -0.000000 -0.000001 0.000000 0.000001 -0.000001 -0.000000 -0.000000 -0.000001 -0.000000 -0.000000 -0.000001 -0.000000 -0.000000 -0.000001 0.000000 0.000001 -0.000001 -0.000000 -0.000000 -0.000001 -0.000000 -0.000000 -0.000001 -0.000000 -0.000000 -0.000001 0.000000 0.000001 -0.000001 -0.000000 -0.000000 0.000001 -0.000000 -0.000000 0.000001 -0.000000 -0.000000 0.000001 -0.000000 
-0.295814 69.680122 9.290401 4.330066 39.305085 -3.206111 0.000000 -0.000002 0.000000 -23.022659 6.238936 8.062299 23.347518 -39.617870 -5.941304 -10.321226 -4.769316 4.063922 -0.000000 -0.000000 -0.000000 -0.000003 0.000001 -0.000000 -11.148727 13.985625 -0.575704 24.015285 11.618278 1.054233 -16.338458 1.746283 -1.469836 0.000000 -0.000001 -0.000000 -0.000000 -0.000005 -0.000001 7.214125 0.383453 -2.629050 1.139007 0.472321 1.508123 1.129819 0.657999 1.495975 -1.497330 24.861769 -8.282023 -9.017807 19.238502 -1.161759 0.000000 -0.000000 -0.000000 0.000000 -0.000000 -0.000000 0.000000 -0.000000 -0.000000 0.000000 -0.000000 0.000000 0.000000 -0.000000 0.000000 0.000000 -0.000000 0.000000 0.000000 -0.000000 0.000000 0.000000 -0.000000 -0.000000 0.000000 -0.000000 -0.000000 -0.098276 -4.304836 -0.130148 -58.723460 20.289150 -23.609853 9.881810 -75.007047 11.444883 -50.003364 13.081689 4.645796 17.538853 -5.734737 -12.929153 10.856128 26.143007 8.645537 0.000000 -0.000000 -0.000000 13.990651 1.416752 -54.990140 0.369565 1.160625 -65.359385 0.000002 0.000002 -0.000002 7.443683 1.211646 -63.724572 1.805157 1.477039 -64.467943 0.000001 -0.000000 -0.000001 8.572798 2.194694 -75.057584 -0.208463 1.006804 -57.748163 -0.000000 0.000001 -0.000003 10.014136 13.637234 -84.738626 0.876263 0.062062 -64.556086 0.000001 0.000000 0.000001 0.000003 0.000001 0.000002 4.845229 8.887815 6.669461 9.629277 15.060108 62.090272 10.941266 22.517798 -5.122148 -0.392300 5.635258 5.539853 15.788505 -2.734487 -17.205883 -1.914297 -31.520135 7.399903 0.000001 -0.000001 0.000001 2.374032 -3.654724 14.015424 -2.143522 -2.475486 24.691627 -0.000001 0.000000 0.000000 -1.975737 -5.709870 19.281540 0.284169 -5.104073 33.006493 -0.000001 -0.000000 -0.000001 -3.264520 -8.564569 17.388010 4.034660 -4.065551 39.281190 0.000002 0.000001 -0.000004 -6.473072 -11.350440 28.880055 10.721151 -2.560959 40.841290 0.000000 0.000001 -0.000001 -0.000001 0.000000 0.000000 0.000000 0.000001 0.000000 -0.000000 0.000001 -0.000000 0.000000 0.000001 0.000000 0.000000 0.000001 0.000000 0.000000 0.000001 0.000000 -0.000000 0.000001 -0.000000 0.000000 0.000001 0.000000 0.000000 0.000001 0.000000 0.000000 0.000001 0.000000 -0.000000 0.000001 -0.000000 0.000000 -0.000002 0.000000 0.000000 -0.000002 0.000000 0.000000 -0.000002 0.000000 
-0.831439 69.713646 9.463701 4.731831 41.598690 -3.824604 -0.000000 0.000001 -0.000000 -23.660284 7.006672 8.998785 23.146413 -38.430346 -5.575443 -10.440111 -4.951546 2.896775 0.000000 -0.000001 -0.000000 0.000001 0.000000 -0.000000 -11.227082 13.288821 0.303123 23.746481 10.283299 0.936882 -16.087918 1.223942 -1.708741 0.000000 -0.000001 0.000000 -0.000000 -0.000001 -0.000000 7.288653 0.337377 -2.756836 1.074960 0.409437 1.547331 1.065680 0.600863 1.538321 -1.669407 23.934919 -8.054798 -9.247520 18.341348 -0.647392 0.000000 0.000001 -0.000000 0.000000 0.000001 -0.000000 0.000000 0.000001 0.000000 0.000000 0.000001 -0.000000 0.000000 0.000000 -0.000000 0.000000 0.000001 -0.000000 0.000000 0.000000 -0.000000 0.000000 0.000001 -0.000000 0.000000 0.000001 -0.000000 -0.137372 -5.857313 0.179678 -58.765124 19.401615 -24.164871 9.711275 -74.412951 11.445094 -50.015973 13.301353 4.477767 17.538797 -5.734830 -12.929143 10.857140 26.145775 8.645671 0.000001 0.000001 0.000000 13.990326 1.420922 -54.988282 0.369537 1.160599 -65.356243 -0.000001 0.000000 -0.000000 7.442989 1.212102 -63.723595 1.805126 1.477047 -64.466426 0.000003 0.000000 -0.000001 8.572820 2.194740 -75.059449 -0.208414 1.006847 -57.749905 0.000000 -0.000000 0.000004 10.015515 13.637225 -84.739596 0.876305 0.062084 -64.557739 -0.000000 -0.000000 -0.000001 -0.000000 -0.000001 0.000001 4.849105 8.873601 6.578574 8.499943 12.815126 62.567347 10.948453 22.781404 -5.092088 -0.404702 5.981666 5.562211 15.788501 -2.734484 -17.205889 -1.995386 -31.404148 7.388593 -0.000001 -0.000001 0.000001 2.372859 -3.654839 14.485501 -2.142883 -2.475661 25.045091 -0.000001 -0.000000 -0.000002 -1.975685 -5.710039 19.743912 0.284317 -5.105397 33.359805 0.000001 0.000000 -0.000001 -3.265556 -8.564744 17.850238 4.034653 -4.066062 39.634522 0.000001 0.000001 -0.000004 -6.472942 -11.350335 29.342537 10.721310 -2.561090 41.194695 -0.000000 0.000000 -0.000003 -0.000001 -0.000000 -0.000000 -0.000000 -0.000000 0.000001 0.000000 -0.000002 0.000000 -0.000000 -0.000000 0.000000 -0.000000 -0.000000 0.000000 -0.000000 -0.000000 0.000001 0.000000 -0.000002 0.000001 -0.000000 -0.000000 0.000000 -0.000000 -0.000000 0.000000 -0.000000 -0.000000 0.000001 0.000000 -0.000002 0.000001 -0.000000 0.000001 -0.000000 -0.000000 0.000001 -0.000000 -0.000000 0.000001 -0.000000 
-1.358547 69.729973 9.590292 5.168489 43.578857 -4.488186 -0.000000 -0.000001 -0.000000 -24.213924 7.352238 10.002768 22.772998 -36.141587 -5.323134 -10.410458 -4.807719 1.576982 -0.000000 -0.000001 -0.000000 -0.000001 0.000001 0.000001 -11.461770 12.605100 1.130738 23.548928 9.223870 0.845038 -15.811832 0.751250 -1.945397 -0.000000 0.000001 -0.000000 -0.000000 0.000001 -0.000000 7.372944 0.334225 -2.867825 1.021573 0.402672 1.586730 1.011855 0.599503 1.577681 -1.918165 23.066285 -7.797575 -9.375052 17.512231 -0.237608 -0.000000 0.000000 -0.000000 -0.000000 0.000000 -0.000000 -0.000000 0.000000 -0.000000 -0.000000 0.000000 -0.000000 -0.000000 0.000000 -0.000000 -0.000000 0.000000 -0.000000 -0.000000 0.000000 -0.000000 -0.000000 0.000000 -0.000000 -0.000000 0.000000 -0.000000 -0.156238 -7.215466 0.446557 -58.915026 18.233878 -24.765115 9.439967 -73.554403 11.301883 -49.997500 13.434654 4.113513 17.538792 -5.734910 -12.929134 10.858178 26.148578 8.645784 -0.000001 -0.000000 -0.000001 13.990055 1.425096 -54.986407 0.369501 1.160546 -65.353039 -0.000000 0.000000 -0.000002 7.442282 1.212597 -63.722632 1.805085 1.477088 -64.464937 0.000002 0.000000 0.000003 8.572855 2.194743 -75.061300 -0.208418 1.006897 -57.751633 -0.000000 0.000000 -0.000002 10.016877 13.637198 -84.740579 0.876326 0.062095 -64.559003 0.000001 -0.000001 -0.000003 0.000004 0.000002 0.000002 4.849872 8.905624 6.467970 7.348085 10.428503 62.949605 10.867224 23.018789 -5.002917 -0.408413 6.356071 5.557294 15.788503 -2.734487 -17.205882 -2.064797 -31.304786 7.379074 0.000000 -0.000002 -0.000000 2.372192 -3.658622 14.937731 -2.142244 -2.475729 25.392338 -0.000000 0.000001 -0.000007 -1.975992 -5.710189 20.185579 0.284479 -5.106701 33.707004 -0.000000 0.000000 -0.000004 -3.266478 -8.564898 18.291820 4.034669 -4.065991 39.981755 0.000000 0.000000 -0.000002 -6.472832 -11.350820 29.784160 10.721337 -2.561128 41.541941 -0.000001 0.000000 -0.000001 -0.000001 -0.000000 0.000000 -0.000001 0.000001 -0.000000 -0.000000 -0.000002 -0.000000 -0.000001 0.000001 -0.000000 -0.000001 0.000001 -0.000000 -0.000001 0.000001 -0.000000 -0.000000 -0.000002 0.000000 -0.000001 0.000001 -0.000000 -0.000001 0.000001 -0.000000 -0.000001 0.000001 -0.000000 -0.000000 -0.000002 0.000000 -0.000000 -0.000001 -0.000000 -0.000000 -0.000001 -0.000000 -0.000000 -0.000001 -0.000000 
